<svg width="30" height="34" viewBox="0 0 30 34" fill="none" xmlns="http://www.w3.org/2000/svg">
<circle cx="15" cy="17" r="15" fill="black"/>
<path d="M14.22 9.07C12.9 9.07 11.61 9.41 10.35 10.09L9.57 7.93C10.25 7.57 11.01 7.28 11.85 7.06C12.71 6.84 13.62 6.73 14.58 6.73C15.72 6.73 16.65 6.89 17.37 7.21C18.11 7.51 18.7 7.9 19.14 8.38C19.58 8.86 19.88 9.4 20.04 10C20.22 10.58 20.31 11.14 20.31 11.68C20.31 12.36 20.18 12.97 19.92 13.51C19.66 14.03 19.34 14.52 18.96 14.98C18.58 15.44 18.16 15.88 17.7 16.3C17.24 16.72 16.82 17.16 16.44 17.62C16.06 18.06 15.74 18.55 15.48 19.09C15.22 19.61 15.09 20.2 15.09 20.86C15.09 20.96 15.09 21.07 15.09 21.19C15.09 21.31 15.1 21.42 15.12 21.52H12.78C12.7 21.12 12.66 20.7 12.66 20.26C12.66 19.62 12.77 19.04 12.99 18.52C13.23 18 13.53 17.52 13.89 17.08C14.25 16.62 14.63 16.2 15.03 15.82C15.43 15.42 15.81 15.02 16.17 14.62C16.53 14.22 16.82 13.8 17.04 13.36C17.28 12.92 17.4 12.44 17.4 11.92C17.4 11.08 17.13 10.4 16.59 9.88C16.05 9.34 15.26 9.07 14.22 9.07ZM16.11 26.38C16.11 26.92 15.93 27.39 15.57 27.79C15.21 28.19 14.72 28.39 14.1 28.39C13.48 28.39 12.99 28.19 12.63 27.79C12.27 27.39 12.09 26.92 12.09 26.38C12.09 25.84 12.27 25.37 12.63 24.97C12.99 24.57 13.48 24.37 14.1 24.37C14.72 24.37 15.21 24.57 15.57 24.97C15.93 25.37 16.11 25.84 16.11 26.38Z" fill="white"/>
</svg>
